<?xml version="1.0" standalone="no"?>
<!DOCTYPE svg PUBLIC "-//W3C//DTD SVG 20010904//EN"
 "http://www.w3.org/TR/2001/REC-SVG-20010904/DTD/svg10.dtd">
<svg version="1.0" xmlns="http://www.w3.org/2000/svg"
 width="512.000000pt" height="512.000000pt" viewBox="0 0 512.000000 512.000000"
 preserveAspectRatio="xMidYMid meet">
<metadata>
Created by potrace 1.14, written by Peter Selinger 2001-2017
</metadata>
<g transform="translate(0.000000,512.000000) scale(0.100000,-0.100000)"
fill="#000000" stroke="none">
<path d="M1190 4262 c-14 -1 -69 -12 -122 -23 -320 -66 -597 -285 -739 -584
-76 -161 -204 -600 -244 -837 -3 -18 -8 -40 -10 -48 -4 -15 -39 -237 -49 -318
-28 -214 -28 -675 -1 -812 3 -14 8 -45 11 -70 16 -125 70 -293 136 -425 41
-82 162 -200 248 -242 336 -164 749 68 1215 681 8 11 45 66 82 122 l68 103
775 0 775 1 71 -108 c171 -258 405 -518 589 -655 203 -151 408 -218 575 -187
131 24 273 122 351 243 56 87 123 256 143 365 44 235 51 306 51 557 0 171 -9
356 -20 410 -2 11 -6 43 -9 70 -5 45 -39 259 -50 310 -68 333 -164 662 -242
832 -60 133 -188 296 -307 392 -105 84 -261 158 -412 196 -93 24 -131 28 -245
28 -223 0 -409 -53 -586 -169 l-59 -39 -623 -1 -623 0 -51 34 c-117 79 -298
148 -438 168 -57 8 -216 12 -260 6z"/>
</g>
</svg>
